<svg width="56" height="44" viewBox="0 0 56 44" fill="none" xmlns="http://www.w3.org/2000/svg">
<g filter="url(#filter0_d_0_4899)">
<path fill-rule="evenodd" clip-rule="evenodd" d="M24 0C11.784 2.412 4 13.168 4 23.45C4 31.39 9.572 36 15.602 36C20.832 36 26 32.406 26 26.042C26 20.838 22.19 16.528 17.208 15.744C17.642 11.736 21.538 5.922 25.968 4.252L24 0ZM50 0C37.784 2.412 30 13.168 30 23.45C30 31.39 35.572 36 41.602 36C46.832 36 52 32.406 52 26.042C52 20.838 48.19 16.528 43.208 15.744C43.642 11.736 47.538 5.922 51.968 4.252L50 0Z" fill="#EF6D58"/>
</g>
<defs>
<filter id="filter0_d_0_4899" x="0" y="0" width="56" height="44" filterUnits="userSpaceOnUse" color-interpolation-filters="sRGB">
<feFlood flood-opacity="0" result="BackgroundImageFix"/>
<feColorMatrix in="SourceAlpha" type="matrix" values="0 0 0 0 0 0 0 0 0 0 0 0 0 0 0 0 0 0 127 0" result="hardAlpha"/>
<feOffset dy="4"/>
<feGaussianBlur stdDeviation="2"/>
<feComposite in2="hardAlpha" operator="out"/>
<feColorMatrix type="matrix" values="0 0 0 0 0 0 0 0 0 0 0 0 0 0 0 0 0 0 0.25 0"/>
<feBlend mode="normal" in2="BackgroundImageFix" result="effect1_dropShadow_0_4899"/>
<feBlend mode="normal" in="SourceGraphic" in2="effect1_dropShadow_0_4899" result="shape"/>
</filter>
</defs>
</svg>
